# xmcd
# 
# Track frame offsets:
#     150
#     13850
#     25666
#     38824
#     49499
#     66582
#     81454
# 
# Disc length: 1262
# 
# Revision: 0
# Processed by: cddbd v1.5.2PL0 Copyright (c) Steve Scherf et al.
# Submitted via: BonkEnc v1.0.6
# 
DISCID=5f04ec07
DTITLE=Acoustic Endeavors - Sneak Preview
DYEAR=2000
DGENRE=Bluegrass
TTITLE0=Careful Of My Heart
TTITLE1=Working Like The Devil
TTITLE2=Just Go On
TTITLE3=Buckshot
TTITLE4=Hummingbird
TTITLE5=Goodbyes
TTITLE6=First Train
EXTD=
EXTT0=
EXTT1=
EXTT2=
EXTT3=
EXTT4=
EXTT5=
EXTT6=
PLAYORDER=
